<?xml version="1.0" encoding="UTF-8" standalone="no"?>
<svg width="1024" height="1024" viewBox="0 0 1024 1024" xmlns="http://www.w3.org/2000/svg">
  <!-- Planet circle -->
  <circle cx="512" cy="512" r="450" fill="#4CAF50" stroke="#2E7D32" stroke-width="20"/>
  
  <!-- Trees -->
  <g transform="translate(512, 512)">
    <!-- Center tree -->
    <path d="M-20,100 L20,100 L0,-100 Z" fill="#1B5E20"/>
    <rect x="-10" y="100" width="20" height="50" fill="#3E2723"/>
    
    <!-- Left tree -->
    <path d="M-170,50 L-130,50 L-150,-100 Z" fill="#1B5E20"/>
    <rect x="-160" y="50" width="20" height="50" fill="#3E2723"/>
    
    <!-- Right tree -->
    <path d="M130,50 L170,50 L150,-100 Z" fill="#1B5E20"/>
    <rect x="140" y="50" width="20" height="50" fill="#3E2723"/>
    
    <!-- Small trees -->
    <path d="M-70,-50 L-30,-50 L-50,-150 Z" fill="#2E7D32"/>
    <rect x="-60" y="-50" width="20" height="30" fill="#3E2723"/>
    
    <path d="M30,-50 L70,-50 L50,-150 Z" fill="#2E7D32"/>
    <rect x="40" y="-50" width="20" height="30" fill="#3E2723"/>
  </g>
  
  <!-- Clouds -->
  <g fill="#FFFFFF" opacity="0.2">
    <circle cx="300" cy="200" r="60"/>
    <circle cx="350" cy="180" r="50"/>
    <circle cx="400" cy="200" r="40"/>
    
    <circle cx="700" cy="300" r="50"/>
    <circle cx="750" cy="280" r="40"/>
    <circle cx="800" cy="300" r="30"/>
  </g>
</svg>
